<svg width="24" height="25" viewBox="0 0 24 25" fill="none" xmlns="http://www.w3.org/2000/svg">
<path d="M14.8125 21.3125H9.1875C9.08437 21.3125 9 21.3969 9 21.5V22.25C9 22.6648 9.33516 23 9.75 23H14.25C14.6648 23 15 22.6648 15 22.25V21.5C15 21.3969 14.9156 21.3125 14.8125 21.3125ZM12 2C7.75547 2 4.3125 5.44297 4.3125 9.6875C4.3125 12.5328 5.85938 15.0172 8.15625 16.3461V19.0625C8.15625 19.4773 8.49141 19.8125 8.90625 19.8125H15.0938C15.5086 19.8125 15.8438 19.4773 15.8438 19.0625V16.3461C18.1406 15.0172 19.6875 12.5328 19.6875 9.6875C19.6875 5.44297 16.2445 2 12 2ZM14.9977 14.8859L14.1562 15.3734V18.125H9.84375V15.3734L9.00234 14.8859C7.15781 13.8195 6 11.8555 6 9.6875C6 6.37344 8.68594 3.6875 12 3.6875C15.3141 3.6875 18 6.37344 18 9.6875C18 11.8555 16.8422 13.8195 14.9977 14.8859Z" fill="#F28211"/>
</svg>
