<svg width="24" height="25" viewBox="0 0 24 25" fill="none" xmlns="http://www.w3.org/2000/svg">
<path d="M7.96809 10.386H16.0281M7.96809 14.614H13.7161M11.9981 21.75C14.0075 21.7496 15.9621 21.0948 17.5663 19.8848C19.1705 18.6748 20.3371 16.9753 20.8896 15.0434C21.4421 13.1115 21.3505 11.0521 20.6286 9.1769C19.9067 7.30167 18.5938 5.71249 16.8885 4.64971C15.1832 3.58694 13.1781 3.10837 11.1766 3.28638C9.17516 3.46439 7.28607 4.2893 5.79507 5.63636C4.30408 6.98341 3.29227 8.77934 2.91266 10.7525C2.53306 12.7258 2.80631 14.7689 3.69109 16.573C3.79909 16.793 3.83509 17.041 3.78009 17.279L2.96409 20.815C2.94109 20.9142 2.94373 21.0177 2.97176 21.1156C2.9998 21.2136 3.0523 21.3027 3.12433 21.3748C3.19636 21.4468 3.28554 21.4993 3.38347 21.5273C3.4814 21.5554 3.58486 21.558 3.68409 21.535L7.21909 20.718C7.45777 20.6657 7.70717 20.6975 7.92509 20.808C9.19249 21.4304 10.5861 21.7527 11.9981 21.75Z" stroke="#F28211" stroke-width="1.5" stroke-linecap="round" stroke-linejoin="round"/>
</svg>
