<svg width="24" height="25" viewBox="0 0 24 25" fill="none" xmlns="http://www.w3.org/2000/svg">
<path d="M7.5 7.25H10.5M7.5 12.5H16.5M7.5 15.5H16.5M7.5 18.5H10.5M6 22.25H18C18.3978 22.25 18.7794 22.092 19.0607 21.8107C19.342 21.5294 19.5 21.1478 19.5 20.75V4.25C19.5 3.85218 19.342 3.47064 19.0607 3.18934C18.7794 2.90804 18.3978 2.75 18 2.75H6C5.60218 2.75 5.22064 2.90804 4.93934 3.18934C4.65804 3.47064 4.5 3.85218 4.5 4.25V20.75C4.5 21.1478 4.65804 21.5294 4.93934 21.8107C5.22064 22.092 5.60218 22.25 6 22.25Z" stroke="#F28211" stroke-width="1.5" stroke-linecap="round" stroke-linejoin="round"/>
<path d="M16.5 7.625C16.7071 7.625 16.875 7.45711 16.875 7.25C16.875 7.04289 16.7071 6.875 16.5 6.875C16.2929 6.875 16.125 7.04289 16.125 7.25C16.125 7.45711 16.2929 7.625 16.5 7.625Z" fill="#F28211" stroke="#F28211" stroke-width="0.75"/>
</svg>
