<svg width="32" height="32" viewBox="0 0 32 32" fill="none" xmlns="http://www.w3.org/2000/svg">
<path d="M7.68 6.54004C4 6.54004 1 9.57004 1 13.29C1 15.82 2.37 18.09 4.54 19.25C4.43 20.43 3.94 22.94 1.93 23.49C1.45 23.62 1.14 24.08 1.2 24.57C1.26 25.06 1.66 25.44 2.16 25.45H2.31C3.29 25.45 8.67 25.23 12.15 20.56C14.41 17.53 15.08 14.24 14.05 11.34C13.19 8.47004 10.63 6.54004 7.68 6.54004ZM30.54 11.35C29.68 8.48004 27.12 6.55004 24.17 6.55004C20.49 6.55004 17.49 9.58004 17.49 13.3C17.49 15.83 18.86 18.1 21.03 19.26C20.92 20.44 20.43 22.95 18.42 23.5C17.94 23.63 17.63 24.09 17.69 24.58C17.75 25.07 18.15 25.45 18.65 25.46H18.8C19.78 25.46 25.16 25.24 28.64 20.57C30.9 17.54 31.57 14.25 30.54 11.35Z" fill="#F28211"/>
</svg>
